<?xml version="1.0" encoding="utf-8"?>
<!-- Generator: Adobe Illustrator 22.0.1, SVG Export Plug-In . SVG Version: 6.00 Build 0)  -->
<svg version="1.1" id="katman_1" xmlns="http://www.w3.org/2000/svg" xmlns:xlink="http://www.w3.org/1999/xlink" x="0px" y="0px"
	 viewBox="0 0 337.3 87.9" style="enable-background:new 0 0 337.3 87.9;" xml:space="preserve">
<style type="text/css">
	.st0{fill:#EE7623;}
	.st1{fill:#FFFFFF;}
	.st2{fill-rule:evenodd;clip-rule:evenodd;fill:#FFFFFF;}
	.st3{fill-rule:evenodd;clip-rule:evenodd;fill:#EE7623;}
</style>
<polygon class="st0" points="295.8,75.6 282.2,48.8 287,48.8 295.8,66.5 304.6,48.8 309.4,48.8 "/>
<g>
	<path class="st0" d="M279.5,51.3c-1.8-1.6-3.8-2.4-6.1-2.4h-10.2v4.4h4.8h3.5h1.7c2.2,0,4.2,1.6,4.2,4.4c0,2.8-2,4.3-4.2,4.3h-1.7
		H268h-4.8v13.7h4.8v-9.4h5.4c2.3,0,4.4-0.8,6.1-2.5c1.8-1.7,2.7-3.7,2.7-6.2C282.2,55,281.3,52.9,279.5,51.3"/>
	<polygon class="st1" points="113.9,48.8 103.1,60.1 114.1,75.8 105.2,75.8 98,65.5 95,68.7 95,75.8 87.7,75.8 87.7,42.2 95,42.2 
		95,58.8 104.4,48.8 	"/>
	<path class="st1" d="M113.9,68.4c0-2.3,0.8-4.2,2.3-5.6c1.5-1.4,3.4-2.3,5.8-2.6l6.6-1c1.4-0.2,2-0.8,2-1.9c0-1-0.4-1.9-1.2-2.5
		c-0.8-0.7-1.9-1-3.4-1c-1.5,0-2.8,0.4-3.7,1.3c-0.9,0.8-1.4,1.9-1.5,3.1l-6.5-1.4c0.3-2.3,1.4-4.4,3.5-6.2c2-1.8,4.8-2.7,8.1-2.7
		c4,0,7,1,8.9,2.9c1.9,1.9,2.9,4.4,2.9,7.4v13.3c0,1.6,0.1,3,0.3,4.3h-6.7c-0.2-0.8-0.3-1.9-0.3-3.2c-1.7,2.7-4.4,4-8,4
		c-2.8,0-5-0.8-6.7-2.4C114.7,72.5,113.9,70.6,113.9,68.4 M124.7,71.1c1.7,0,3.1-0.5,4.3-1.5c1.1-1,1.7-2.6,1.7-4.8v-1.2l-6.1,0.9
		c-2.2,0.3-3.4,1.5-3.4,3.4c0,0.9,0.3,1.6,0.9,2.2C122.7,70.8,123.6,71.1,124.7,71.1"/>
	<rect x="142.9" y="42.2" class="st1" width="7.3" height="33.6"/>
	<polygon class="st1" points="165.1,86.5 157.3,86.5 163.7,72.4 152.2,48.8 160.4,48.8 167.6,64.6 174.2,48.8 182,48.8 	"/>
	<path class="st1" d="M184.9,52c2.7-2.7,6.1-4.1,10.2-4.1c4.1,0,7.4,1.3,10.1,4.1c2.7,2.7,4,6.1,4,10.3c0,4.1-1.3,7.6-4,10.3
		c-2.7,2.7-6.1,4.1-10.1,4.1c-4.1,0-7.4-1.4-10.1-4.1c-2.7-2.7-4-6.1-4-10.3C180.9,58.1,182.3,54.7,184.9,52 M190.2,67.9
		c1.4,1.4,3,2,4.9,2c1.9,0,3.5-0.7,4.9-2c1.3-1.4,2-3.2,2-5.7c0-2.4-0.7-4.3-2-5.7c-1.3-1.4-3-2-4.9-2c-1.9,0-3.5,0.7-4.9,2
		c-1.3,1.4-2,3.2-2,5.7C188.2,64.7,188.9,66.6,190.2,67.9"/>
	<path class="st1" d="M220.1,60.3v15.6h-7.3v-27h7.1v3.4c0.8-1.3,1.9-2.3,3.3-3c1.4-0.7,2.9-1,4.5-1c3.2,0,5.6,1,7.3,3
		c1.7,2,2.5,4.6,2.5,7.7v17h-7.3V60c0-1.6-0.4-2.9-1.2-3.9c-0.8-1-2.1-1.5-3.8-1.5c-1.5,0-2.8,0.5-3.7,1.6
		C220.5,57.3,220.1,58.6,220.1,60.3"/>
	<path class="st2" d="M39.9,36.6c-3.7-1.3-6.1-1.2-6.1-1.2c7-2.9,12.6-8.6,15.2-15.8l5.6,0C51.9,26.9,46.7,32.9,39.9,36.6"/>
	<path class="st2" d="M46.3,39.8c-1.5-1-2.9-1.7-4.2-2.3c6.7-4,11.9-10.3,14.4-17.9h5.3C57.7,31.7,50.7,37,46.3,39.8"/>
	<path class="st2" d="M73.1,38.6c0-16.5-13.4-29.9-29.9-29.9c-16.5,0-29.9,13.4-29.9,29.9c0,16.5,13.4,29.8,29.9,29.8v7.4
		C22.7,75.8,6,59.1,6,38.6C6,18.1,22.6,1.4,43.2,1.4s37.2,16.6,37.2,37.2H73.1z"/>
	<path class="st1" d="M60.4,75.8h5.3c-0.6-21.5-18.2-38.7-39.8-38.7v5.3h0.2C44.7,42.4,59.9,57.3,60.4,75.8"/>
	<path class="st1" d="M53.3,75.8h5.3C58,58.3,43.7,44.2,26.1,44.2h-0.2v5.3C40.6,49.5,52.6,61.2,53.3,75.8"/>
	<rect x="246.7" y="58.7" class="st3" width="7.1" height="7.1"/>
	<path class="st0" d="M292.7,39.5l-3.8-4.1l1.5-1.5c0.3-0.3,0.8-0.5,1.3-0.5c0.5,0,0.9,0.2,1.3,0.6c0.4,0.4,0.5,0.8,0.5,1.3
		c0,0.5-0.2,0.9-0.6,1.2l-0.8,0.8l1.3,1.4L292.7,39.5z M291.5,36.7l0.8-0.7c0.3-0.3,0.4-0.8,0-1.3c-0.4-0.4-0.9-0.4-1.3-0.1
		l-0.8,0.7L291.5,36.7z"/>
	<polygon class="st0" points="297,35.7 294.7,30.7 295.6,30.3 296.5,32.2 299,31.1 298.1,29.1 299,28.7 301.3,33.8 300.4,34.2 
		299.3,32 296.9,33.1 297.9,35.3 	"/>
	<path class="st0" d="M303.8,32.5c-0.6-0.5-0.9-1.2-1-2c0-0.8,0.2-1.5,0.7-2.1c0.5-0.6,1.2-0.9,2-0.9s1.5,0.2,2.1,0.7
		c0.6,0.5,0.9,1.2,1,2c0,0.8-0.2,1.5-0.7,2.1c-0.5,0.6-1.2,0.9-2,0.9C305.1,33.3,304.4,33,303.8,32.5 M304.4,31.8
		c0.4,0.4,0.9,0.5,1.4,0.5c0.6,0,1-0.2,1.4-0.6c0.4-0.4,0.5-0.9,0.5-1.4c0-0.6-0.2-1-0.6-1.4c-0.4-0.4-0.9-0.5-1.4-0.5
		c-0.6,0-1,0.2-1.4,0.6c-0.4,0.4-0.5,0.9-0.5,1.4C303.8,31,304,31.5,304.4,31.8"/>
	<polygon class="st0" points="311.5,33.7 312.7,29.2 311.3,28.7 311.5,27.9 315.4,28.9 315.1,29.8 313.7,29.4 312.4,33.9 	"/>
	<path class="st0" d="M316.1,34.6c-0.2-0.8,0-1.5,0.4-2.2c0.5-0.7,1.1-1.1,1.9-1.2c0.8-0.1,1.5,0,2.2,0.5c0.7,0.5,1.1,1.1,1.3,1.9
		c0.2,0.8,0,1.5-0.4,2.2c-0.5,0.7-1.1,1.1-1.9,1.2c-0.8,0.1-1.5,0-2.2-0.5C316.7,36,316.3,35.3,316.1,34.6 M317,34.4
		c0.1,0.5,0.4,0.9,0.8,1.3c0.5,0.3,0.9,0.4,1.5,0.3c0.5-0.1,0.9-0.4,1.3-0.9c0.3-0.5,0.4-1,0.3-1.5c-0.1-0.5-0.4-0.9-0.8-1.3
		c-0.5-0.3-1-0.4-1.5-0.3c-0.5,0.1-0.9,0.4-1.3,0.9C317,33.4,316.9,33.9,317,34.4"/>
	<polygon class="st0" points="321.9,41 325,35.4 325.7,36.3 323.7,39.7 327.6,38.9 328.2,39.7 	"/>
	<path class="st0" d="M325.1,44.5c0.4-0.7,1-1.2,1.7-1.4c0.8-0.2,1.5-0.1,2.2,0.3c0.7,0.4,1.2,1,1.4,1.8c0.2,0.8,0.2,1.5-0.2,2.2
		c-0.4,0.7-0.9,1.2-1.7,1.4c-0.8,0.2-1.5,0.1-2.2-0.3c-0.7-0.4-1.1-1-1.4-1.8C324.6,45.9,324.7,45.2,325.1,44.5 M325.9,45
		c-0.3,0.5-0.3,1-0.2,1.5c0.2,0.5,0.5,0.9,0.9,1.2c0.5,0.3,1,0.3,1.5,0.2c0.5-0.2,0.9-0.5,1.2-0.9c0.3-0.5,0.3-1,0.2-1.5
		c-0.2-0.5-0.5-0.9-0.9-1.2c-0.5-0.3-1-0.3-1.5-0.1C326.6,44.2,326.2,44.5,325.9,45"/>
	<polygon class="st0" points="325.8,51.3 331.3,51.6 331.3,52.6 326.6,52.4 326.5,54.6 325.6,54.6 	"/>
	<polygon class="st0" points="325.1,56.8 329.6,58.1 330,56.6 330.9,56.9 329.7,60.7 328.9,60.5 329.3,59 324.8,57.7 	"/>
	<path class="st0" d="M324.2,59.7l3.4,5.5l-6.4-0.8l0.6-0.9l1.2,0.2l1.3-2l-0.6-1L324.2,59.7z M324.8,62.4l-0.9,1.4l2,0.3
		L324.8,62.4z"/>
	<rect x="320.9" y="65.1" transform="matrix(0.7397 -0.6729 0.6729 0.7397 37.9644 233.9677)" class="st0" width="1" height="5.6"/>
	<path class="st0" d="M315.3,74l0.3-0.8c0.6,0.2,1.1,0.2,1.7-0.1c0.5-0.3,0.8-0.6,1-1.1c0.2-0.5,0.1-1-0.1-1.5
		c-0.3-0.5-0.6-0.8-1.1-1c-0.5-0.2-1-0.1-1.5,0.1c-0.6,0.3-0.9,0.7-1.1,1.3l-0.9-0.2c0.2-0.8,0.7-1.5,1.5-1.9
		c0.7-0.4,1.5-0.5,2.2-0.2c0.8,0.2,1.3,0.7,1.7,1.4c0.4,0.7,0.4,1.5,0.2,2.2c-0.3,0.8-0.8,1.3-1.5,1.7
		C316.9,74.3,316.1,74.3,315.3,74"/>
</g>
</svg>
