<svg xmlns="http://www.w3.org/2000/svg" viewBox="0 0 215.9 83.6" enable-background="new 0 0 215.9 83.6"><style type="text/css">.st0{fill:#0B3B5D;} .st1{fill-rule:evenodd;clip-rule:evenodd;fill:#0B3B5D;}</style><path d="M98.4 46.9L88.7 57l9.9 14h-8l-6.4-9.2-2.7 2.8V71H75V41.1h6.5v14.8l8.3-9zM98.3 64.4c0-2.1.7-3.7 2-4.9 1.3-1.2 3.1-2 5.2-2.4l5.9-.9c1.2-.2 1.8-.7 1.8-1.7 0-.9-.4-1.7-1.1-2.3-.7-.6-1.7-.9-3-.9-1.4 0-2.5.4-3.3 1.1-.8.8-1.3 1.7-1.3 2.8L98.7 54c.2-2.1 1.3-3.9 3.1-5.5s4.2-2.4 7.3-2.4c3.6 0 6.2.9 7.9 2.6 1.7 1.7 2.5 3.9 2.5 6.6v11.9c0 1.4.1 2.7.3 3.8h-6c-.2-.7-.2-1.7-.2-2.9-1.5 2.4-3.9 3.6-7.1 3.6-2.5 0-4.5-.7-6-2.2-1.4-1.4-2.2-3.1-2.2-5.1m9.7 2.4c1.5 0 2.8-.4 3.8-1.3s1.5-2.3 1.5-4.3v-1.1l-5.4.8c-2 .3-3 1.3-3 3 0 .8.3 1.4.8 2 .5.7 1.3.9 2.3.9" class="st0"/><path d="M124.2 41.1h6.5V71h-6.5zM144 80.5h-6.9l5.7-12.5-10.3-21.1h7.3l6.4 14.1 6-14.1h6.9zM161.7 49.8c2.4-2.4 5.4-3.6 9.1-3.6 3.6 0 6.6 1.2 9 3.6 2.4 2.4 3.6 5.5 3.6 9.2s-1.2 6.7-3.6 9.2c-2.4 2.4-5.4 3.6-9 3.6-3.6 0-6.6-1.2-9-3.6-2.4-2.4-3.6-5.5-3.6-9.2s1.1-6.8 3.5-9.2m4.7 14.2c1.2 1.2 2.7 1.8 4.4 1.8 1.7 0 3.1-.6 4.3-1.8 1.2-1.2 1.8-2.9 1.8-5 0-2.2-.6-3.8-1.8-5-1.2-1.2-2.6-1.8-4.3-1.8-1.7 0-3.1.6-4.3 1.8-1.2 1.2-1.8 2.9-1.8 5s.6 3.8 1.7 5M193.1 57.1V71h-6.5V46.9h6.3v3c.7-1.2 1.7-2.1 2.9-2.7 1.3-.6 2.6-.9 4-.9 2.8 0 5 .9 6.5 2.7 1.5 1.8 2.2 4.1 2.2 6.9V71H202V56.9c0-1.4-.4-2.6-1.1-3.5-.7-.9-1.9-1.3-3.4-1.3-1.4 0-2.5.5-3.3 1.4-.7 1-1.1 2.2-1.1 3.6" class="st0"/><path d="M32.3 36c-3.3-1.2-5.5-1.1-5.5-1.1C33 32.3 38 27.2 40.4 20.8h5c-2.3 6.6-7 11.9-13.1 15.2M38 38.9c-1.3-.9-2.6-1.6-3.7-2.1 6-3.6 10.6-9.2 12.9-16H52c-3.7 10.9-10 15.6-14 18.1" class="st1"/><path d="M62 37.8c0-14.7-12-26.7-26.7-26.7S8.6 23.1 8.6 37.8s12 26.6 26.7 26.6V71C17 71 2.1 56.1 2.1 37.8S16.9 4.6 35.3 4.6c18.3 0 33.2 14.8 33.2 33.2H62z" class="st1"/><path d="M50.6 71h4.7c-.6-19.1-16.2-34.5-35.5-34.5v4.7h.2c16.7 0 30.2 13.3 30.6 29.8M44.3 71H49c-.5-15.6-13.3-28.2-29-28.2h-.2v4.7C33 47.6 43.7 58 44.3 71" class="st0"/></svg>