<?xml version="1.0" encoding="utf-8"?>
<!-- Generator: Adobe Illustrator 22.0.1, SVG Export Plug-In . SVG Version: 6.00 Build 0)  -->
<svg version="1.1" id="katman_1" xmlns="http://www.w3.org/2000/svg" xmlns:xlink="http://www.w3.org/1999/xlink" x="0px" y="0px"
	 viewBox="0 0 215.9 83.6" style="enable-background:new 0 0 215.9 83.6;" xml:space="preserve">
<style type="text/css">
	.st0{fill:#FFFFFF;}
	.st1{fill-rule:evenodd;clip-rule:evenodd;fill:#FFFFFF;}
</style>
<g>
	<polygon class="st0" points="98.4,46.9 88.7,57 98.6,71 90.6,71 84.2,61.8 81.5,64.6 81.5,71 75,71 75,41.1 81.5,41.1 81.5,55.9 
		89.8,46.9 	"/>
	<path class="st0" d="M98.3,64.4c0-2.1,0.7-3.7,2-4.9c1.3-1.2,3.1-2,5.2-2.4l5.9-0.9c1.2-0.2,1.8-0.7,1.8-1.7c0-0.9-0.4-1.7-1.1-2.3
		c-0.7-0.6-1.7-0.9-3-0.9c-1.4,0-2.5,0.4-3.3,1.1c-0.8,0.8-1.3,1.7-1.3,2.8l-5.8-1.2c0.2-2.1,1.3-3.9,3.1-5.5
		c1.8-1.6,4.2-2.4,7.3-2.4c3.6,0,6.2,0.9,7.9,2.6c1.7,1.7,2.5,3.9,2.5,6.6v11.9c0,1.4,0.1,2.7,0.3,3.8h-6c-0.2-0.7-0.2-1.7-0.2-2.9
		c-1.5,2.4-3.9,3.6-7.1,3.6c-2.5,0-4.5-0.7-6-2.2C99.1,68.1,98.3,66.4,98.3,64.4 M108,66.8c1.5,0,2.8-0.4,3.8-1.3
		c1-0.9,1.5-2.3,1.5-4.3v-1.1l-5.4,0.8c-2,0.3-3,1.3-3,3c0,0.8,0.3,1.4,0.8,2C106.2,66.6,107,66.8,108,66.8"/>
	<rect x="124.2" y="41.1" class="st0" width="6.5" height="29.9"/>
	<polygon class="st0" points="144,80.5 137.1,80.5 142.8,68 132.5,46.9 139.8,46.9 146.2,61 152.2,46.9 159.1,46.9 	"/>
	<path class="st0" d="M161.7,49.8c2.4-2.4,5.4-3.6,9.1-3.6c3.6,0,6.6,1.2,9,3.6c2.4,2.4,3.6,5.5,3.6,9.2s-1.2,6.7-3.6,9.2
		c-2.4,2.4-5.4,3.6-9,3.6c-3.6,0-6.6-1.2-9-3.6c-2.4-2.4-3.6-5.5-3.6-9.2S159.3,52.2,161.7,49.8 M166.4,64c1.2,1.2,2.7,1.8,4.4,1.8
		c1.7,0,3.1-0.6,4.3-1.8c1.2-1.2,1.8-2.9,1.8-5c0-2.2-0.6-3.8-1.8-5c-1.2-1.2-2.6-1.8-4.3-1.8c-1.7,0-3.1,0.6-4.3,1.8
		c-1.2,1.2-1.8,2.9-1.8,5C164.7,61.1,165.3,62.8,166.4,64"/>
	<path class="st0" d="M193.1,57.1V71h-6.5V46.9h6.3v3c0.7-1.2,1.7-2.1,2.9-2.7c1.3-0.6,2.6-0.9,4-0.9c2.8,0,5,0.9,6.5,2.7
		c1.5,1.8,2.2,4.1,2.2,6.9V71H202V56.9c0-1.4-0.4-2.6-1.1-3.5c-0.7-0.9-1.9-1.3-3.4-1.3c-1.4,0-2.5,0.5-3.3,1.4
		C193.5,54.5,193.1,55.7,193.1,57.1"/>
	<path class="st1" d="M32.3,36c-3.3-1.2-5.5-1.1-5.5-1.1c6.2-2.6,11.2-7.7,13.6-14.1l5,0C43.1,27.4,38.4,32.7,32.3,36"/>
	<path class="st1" d="M38,38.9c-1.3-0.9-2.6-1.6-3.7-2.1c6-3.6,10.6-9.2,12.9-16h4.8C48.3,31.7,42,36.4,38,38.9"/>
	<path class="st1" d="M62,37.8c0-14.7-12-26.7-26.7-26.7c-14.7,0-26.7,12-26.7,26.7c0,14.7,12,26.6,26.7,26.6V71
		C17,71,2.1,56.1,2.1,37.8S16.9,4.6,35.3,4.6c18.3,0,33.2,14.8,33.2,33.2H62z"/>
	<path class="st0" d="M50.6,71h4.7c-0.6-19.1-16.2-34.5-35.5-34.5v4.7H20C36.7,41.2,50.2,54.5,50.6,71"/>
	<path class="st0" d="M44.3,71h4.7C48.5,55.4,35.7,42.8,20,42.8h-0.2v4.7C33,47.6,43.7,58,44.3,71"/>
</g>
</svg>
